<svg id="my-svg" width="1280.3203125" xmlns="http://www.w3.org/2000/svg" xmlns:xlink="http://www.w3.org/1999/xlink" class="statediagram" height="1139" viewBox="0 0 1280.3203125 1139" role="graphics-document document" aria-roledescription="stateDiagram" style="background-color: white;"><style>#my-svg{font-family:Segoe UI,Arial,sans-serif;font-size:15px;fill:#333;}@keyframes edge-animation-frame{from{stroke-dashoffset:0;}}@keyframes dash{to{stroke-dashoffset:0;}}#my-svg .edge-animation-slow{stroke-dasharray:9,5!important;stroke-dashoffset:900;animation:dash 50s linear infinite;stroke-linecap:round;}#my-svg .edge-animation-fast{stroke-dasharray:9,5!important;stroke-dashoffset:900;animation:dash 20s linear infinite;stroke-linecap:round;}#my-svg .error-icon{fill:#552222;}#my-svg .error-text{fill:#552222;stroke:#552222;}#my-svg .edge-thickness-normal{stroke-width:1px;}#my-svg .edge-thickness-thick{stroke-width:3.5px;}#my-svg .edge-pattern-solid{stroke-dasharray:0;}#my-svg .edge-thickness-invisible{stroke-width:0;fill:none;}#my-svg .edge-pattern-dashed{stroke-dasharray:3;}#my-svg .edge-pattern-dotted{stroke-dasharray:2;}#my-svg .marker{fill:#333333;stroke:#333333;}#my-svg .marker.cross{stroke:#333333;}#my-svg svg{font-family:Segoe UI,Arial,sans-serif;font-size:15px;}#my-svg p{margin:0;}#my-svg defs [id$="-barbEnd"]{fill:#333333;stroke:#333333;}#my-svg g.stateGroup text{fill:#9370DB;stroke:none;font-size:10px;}#my-svg g.stateGroup text{fill:#333;stroke:none;font-size:10px;}#my-svg g.stateGroup .state-title{font-weight:bolder;fill:#131300;}#my-svg g.stateGroup rect{fill:#ECECFF;stroke:#9370DB;}#my-svg g.stateGroup line{stroke:#333333;stroke-width:1;}#my-svg .transition{stroke:#333333;stroke-width:1;fill:none;}#my-svg .stateGroup .composit{fill:white;border-bottom:1px;}#my-svg .stateGroup .alt-composit{fill:#e0e0e0;border-bottom:1px;}#my-svg .state-note{stroke:#aaaa33;fill:#fff5ad;}#my-svg .state-note text{fill:black;stroke:none;font-size:10px;}#my-svg .stateLabel .box{stroke:none;stroke-width:0;fill:#ECECFF;opacity:0.5;}#my-svg .edgeLabel .label rect{fill:#ECECFF;opacity:0.5;}#my-svg .edgeLabel{background-color:rgba(232,232,232, 0.8);text-align:center;}#my-svg .edgeLabel p{background-color:rgba(232,232,232, 0.8);}#my-svg .edgeLabel rect{opacity:0.5;background-color:rgba(232,232,232, 0.8);fill:rgba(232,232,232, 0.8);}#my-svg .edgeLabel .label text{fill:#333;}#my-svg .label div .edgeLabel{color:#333;}#my-svg .stateLabel text{fill:#131300;font-size:10px;font-weight:bold;}#my-svg .node circle.state-start{fill:#333333;stroke:#333333;}#my-svg .node .fork-join{fill:#333333;stroke:#333333;}#my-svg .node circle.state-end{fill:#9370DB;stroke:white;stroke-width:1.5;}#my-svg .end-state-inner{fill:white;stroke-width:1.5;}#my-svg .node rect{fill:#ECECFF;stroke:#9370DB;stroke-width:1px;}#my-svg .node polygon{fill:#ECECFF;stroke:#9370DB;stroke-width:1px;}#my-svg [id$="-barbEnd"]{fill:#333333;}#my-svg .statediagram-cluster rect{fill:#ECECFF;stroke:#9370DB;stroke-width:1px;}#my-svg .cluster-label,#my-svg .nodeLabel{color:#131300;}#my-svg .statediagram-cluster rect.outer{rx:5px;ry:5px;}#my-svg .statediagram-state .divider{stroke:#9370DB;}#my-svg .statediagram-state .title-state{rx:5px;ry:5px;}#my-svg .statediagram-cluster.statediagram-cluster .inner{fill:white;}#my-svg .statediagram-cluster.statediagram-cluster-alt .inner{fill:#f0f0f0;}#my-svg .statediagram-cluster .inner{rx:0;ry:0;}#my-svg .statediagram-state rect.basic{rx:5px;ry:5px;}#my-svg .statediagram-state rect.divider{stroke-dasharray:10,10;fill:#f0f0f0;}#my-svg .note-edge{stroke-dasharray:5;}#my-svg .statediagram-note rect{fill:#fff5ad;stroke:#aaaa33;stroke-width:1px;rx:0;ry:0;}#my-svg .statediagram-note rect{fill:#fff5ad;stroke:#aaaa33;stroke-width:1px;rx:0;ry:0;}#my-svg .statediagram-note text{fill:black;}#my-svg .statediagram-note .nodeLabel{color:black;}#my-svg .statediagram .edgeLabel{color:red;}#my-svg [id$="-dependencyStart"],#my-svg [id$="-dependencyEnd"]{fill:#333333;stroke:#333333;stroke-width:1;}#my-svg .statediagramTitleText{text-anchor:middle;font-size:18px;fill:#333;}#my-svg [data-look="neo"].statediagram-cluster rect{fill:#ECECFF;stroke:#9370DB;stroke-width:1;}#my-svg [data-look="neo"].statediagram-cluster rect.outer{rx:5px;ry:5px;filter:drop-shadow(1px 2px 2px rgba(185, 185, 185, 1));}#my-svg .node .neo-node{stroke:#9370DB;}#my-svg [data-look="neo"].node rect,#my-svg [data-look="neo"].cluster rect,#my-svg [data-look="neo"].node polygon{stroke:#9370DB;filter:drop-shadow(1px 2px 2px rgba(185, 185, 185, 1));}#my-svg [data-look="neo"].swimlane.cluster rect{filter:none;}#my-svg [data-look="neo"].node path{stroke:#9370DB;stroke-width:1px;}#my-svg [data-look="neo"].node .outer-path{filter:drop-shadow(1px 2px 2px rgba(185, 185, 185, 1));}#my-svg [data-look="neo"].node .neo-line path{stroke:#9370DB;filter:none;}#my-svg [data-look="neo"].node circle{stroke:#9370DB;filter:drop-shadow(1px 2px 2px rgba(185, 185, 185, 1));}#my-svg [data-look="neo"].node circle .state-start{fill:#000000;}#my-svg [data-look="neo"].icon-shape .icon{fill:#9370DB;filter:drop-shadow(1px 2px 2px rgba(185, 185, 185, 1));}#my-svg [data-look="neo"].icon-shape .icon-neo path{stroke:#9370DB;filter:drop-shadow(1px 2px 2px rgba(185, 185, 185, 1));}#my-svg :root{--mermaid-font-family:"trebuchet ms",verdana,arial,sans-serif;}</style><g><defs><marker id="my-svg_stateDiagram-barbEnd" refX="19" refY="7" markerWidth="20" markerHeight="14" markerUnits="userSpaceOnUse" orient="auto"><path d="M 19,7 L9,13 L14,7 L9,1 Z"/></marker></defs><g class="root"><g class="clusters"><g class="note-cluster" id="my-svg-state-running----parent-15"><rect x="11.125" y="363.5" width="300" height="237.5" fill="none"/></g><g class="note-cluster" id="my-svg-state-draining----parent-16"><rect x="8" y="829.5" width="300" height="237.5" fill="none"/></g></g><g class="edgePaths"><path d="M838.664,34.25L838.664,42.333C838.664,50.417,838.664,66.583,838.664,80.708C838.664,94.833,838.664,106.917,838.664,112.958L838.664,119" id="my-svg-edge0" class="edge-thickness-normal edge-pattern-solid transition" style="fill:none;;;fill:none" data-edge="true" data-et="edge" data-id="edge0" data-points="W3sieCI6ODM4LjY2NDA2MjUsInkiOjM0LjI1fSx7IngiOjgzOC42NjQwNjI1LCJ5Ijo4Mi43NX0seyJ4Ijo4MzguNjY0MDYyNSwieSI6MTE5fV0=" data-look="classic" marker-end="url(#my-svg_stateDiagram-barbEnd)"/><path d="M805.633,146.208L772.745,154.132C739.858,162.056,674.083,177.903,641.196,191.868C608.309,205.833,608.309,217.917,608.309,223.958L608.309,230" id="my-svg-edge1" class="edge-thickness-normal edge-pattern-solid transition" style="fill:none;;;fill:none" data-edge="true" data-et="edge" data-id="edge1" data-points="W3sieCI6ODA1LjYzMjgxMjUsInkiOjE0Ni4yMDgyODQ1ODA1NTY1NX0seyJ4Ijo2MDguMzA4NTkzNzUsInkiOjE5My43NX0seyJ4Ijo2MDguMzA4NTkzNzUsInkiOjIzMH1d" data-look="classic" marker-end="url(#my-svg_stateDiagram-barbEnd)"/><path d="M641.332,259.618L671.264,269.015C701.197,278.412,761.061,297.206,790.993,314.52C820.926,331.833,820.926,347.667,830.385,372.167C839.845,396.667,858.764,429.833,868.224,446.417L877.683,463" id="my-svg-edge2" class="edge-thickness-normal edge-pattern-solid transition" style="fill:none;;;fill:none" data-edge="true" data-et="edge" data-id="edge2" data-points="W3sieCI6NjQxLjMzMjAzMTI1LCJ5IjoyNTkuNjE3NTI3MDk5MDI2M30seyJ4Ijo4MjAuOTI1NzgxMjUsInkiOjMxNn0seyJ4Ijo4MjAuOTI1NzgxMjUsInkiOjM2My41fSx7IngiOjg3Ny42ODMzMzA1OTIxMDUyLCJ5Ijo0NjN9XQ==" data-look="classic" marker-end="url(#my-svg_stateDiagram-barbEnd)"/><path d="M899.645,463L909.104,446.417C918.564,429.833,937.483,396.667,946.943,372.167C956.402,347.667,956.402,331.833,903.891,313.847C851.379,295.861,746.355,275.722,693.844,265.652L641.332,255.583" id="my-svg-edge3" class="edge-thickness-normal edge-pattern-solid transition" style="fill:none;;;fill:none" data-edge="true" data-et="edge" data-id="edge3" data-points="W3sieCI6ODk5LjY0NDc5NDQwNzg5NDgsInkiOjQ2M30seyJ4Ijo5NTYuNDAyMzQzNzUsInkiOjM2My41fSx7IngiOjk1Ni40MDIzNDM3NSwieSI6MzE2fSx7IngiOjY0MS4zMzIwMzEyNSwieSI6MjU1LjU4MjUzMDk3MjI1OTYzfV0=" data-look="classic" marker-end="url(#my-svg_stateDiagram-barbEnd)"/><path d="M575.285,259.011L543.152,268.509C511.018,278.007,446.751,297.004,414.618,314.419C382.484,331.833,382.484,347.667,382.484,372.167C382.484,396.667,382.484,429.833,382.484,446.417L382.484,463" id="my-svg-edge4" class="edge-thickness-normal edge-pattern-solid transition" style="fill:none;;;fill:none" data-edge="true" data-et="edge" data-id="edge4" data-points="W3sieCI6NTc1LjI4NTE1NjI1LCJ5IjoyNTkuMDExMTk1OTY2MTY1Nn0seyJ4IjozODIuNDg0Mzc1LCJ5IjozMTZ9LHsieCI6MzgyLjQ4NDM3NSwieSI6MzYzLjV9LHsieCI6MzgyLjQ4NDM3NSwieSI6NDYzfV0=" data-look="classic" marker-end="url(#my-svg_stateDiagram-barbEnd)"/><path d="M382.484,501.5L382.484,518.083C382.484,534.667,382.484,567.833,382.484,592.333C382.484,616.833,382.484,632.667,382.484,648.5C382.484,664.333,382.484,680.167,382.484,688.083L382.484,696" id="my-svg-edge5" class="edge-thickness-normal edge-pattern-solid transition" style="fill:none;;;fill:none" data-edge="true" data-et="edge" data-id="edge5" data-points="W3sieCI6MzgyLjQ4NDM3NSwieSI6NTAxLjV9LHsieCI6MzgyLjQ4NDM3NSwieSI6NjAxfSx7IngiOjM4Mi40ODQzNzUsInkiOjY0OC41fSx7IngiOjM4Mi40ODQzNzUsInkiOjY5Nn1d" data-look="classic" marker-end="url(#my-svg_stateDiagram-barbEnd)"/><path d="M383.386,734.5L383.756,742.417C384.127,750.333,384.868,766.167,385.239,782C385.609,797.833,385.609,813.667,385.609,838.167C385.609,862.667,385.609,895.833,385.609,912.417L385.609,929" id="my-svg-edge6" class="edge-thickness-normal edge-pattern-solid transition" style="fill:none;;;fill:none" data-edge="true" data-et="edge" data-id="edge6" data-points="W3sieCI6MzgzLjM4NTU5MjIyODQ2NDQsInkiOjczNC41fSx7IngiOjM4NS42MDkzNzUsInkiOjc4Mn0seyJ4IjozODUuNjA5Mzc1LCJ5Ijo4MjkuNX0seyJ4IjozODUuNjA5Mzc1LCJ5Ijo5Mjl9XQ==" data-look="classic" marker-end="url(#my-svg_stateDiagram-barbEnd)"/><path d="M641.332,265.394L658.585,273.828C675.839,282.262,710.345,299.131,727.598,315.482C744.852,331.833,744.852,347.667,744.852,375.375C744.852,403.083,744.852,442.667,744.852,482.25C744.852,521.833,744.852,561.417,744.852,589.125C744.852,616.833,744.852,632.667,744.852,651.708C744.852,670.75,744.852,693,744.852,715.25C744.852,737.5,744.852,759.75,744.852,778.792C744.852,797.833,744.852,813.667,770.29,838.167C795.729,862.667,846.606,895.833,872.044,912.417L897.483,929" id="my-svg-edge7" class="edge-thickness-normal edge-pattern-solid transition" style="fill:none;;;fill:none" data-edge="true" data-et="edge" data-id="edge7" data-points="W3sieCI6NjQxLjMzMjAzMTI1LCJ5IjoyNjUuMzkzNzQxOTUzOTQwOH0seyJ4Ijo3NDQuODUxNTYyNSwieSI6MzE2fSx7IngiOjc0NC44NTE1NjI1LCJ5IjozNjMuNX0seyJ4Ijo3NDQuODUxNTYyNSwieSI6NDgyLjI1fSx7IngiOjc0NC44NTE1NjI1LCJ5Ijo2MDF9LHsieCI6NzQ0Ljg1MTU2MjUsInkiOjY0OC41fSx7IngiOjc0NC44NTE1NjI1LCJ5Ijo3MTUuMjV9LHsieCI6NzQ0Ljg1MTU2MjUsInkiOjc4Mn0seyJ4Ijo3NDQuODUxNTYyNSwieSI6ODI5LjV9LHsieCI6ODk3LjQ4MjU5ODY4NDIxMDUsInkiOjkyOX1d" data-look="classic" marker-end="url(#my-svg_stateDiagram-barbEnd)"/><path d="M888.664,501.5L888.664,518.083C888.664,534.667,888.664,567.833,888.664,592.333C888.664,616.833,888.664,632.667,888.664,651.708C888.664,670.75,888.664,693,888.664,715.25C888.664,737.5,888.664,759.75,888.664,778.792C888.664,797.833,888.664,813.667,894.019,838.167C899.374,862.667,910.085,895.833,915.44,912.417L920.795,929" id="my-svg-edge8" class="edge-thickness-normal edge-pattern-solid transition" style="fill:none;;;fill:none" data-edge="true" data-et="edge" data-id="edge8" data-points="W3sieCI6ODg4LjY2NDA2MjUsInkiOjUwMS41fSx7IngiOjg4OC42NjQwNjI1LCJ5Ijo2MDF9LHsieCI6ODg4LjY2NDA2MjUsInkiOjY0OC41fSx7IngiOjg4OC42NjQwNjI1LCJ5Ijo3MTUuMjV9LHsieCI6ODg4LjY2NDA2MjUsInkiOjc4Mn0seyJ4Ijo4ODguNjY0MDYyNSwieSI6ODI5LjV9LHsieCI6OTIwLjc5NTM2MTg0MjEwNTMsInkiOjkyOX1d" data-look="classic" marker-end="url(#my-svg_stateDiagram-barbEnd)"/><path d="M417.172,719.021L513.712,729.518C610.253,740.014,803.333,761.007,899.874,779.42C996.414,797.833,996.414,813.667,986.722,838.167C977.03,862.667,957.646,895.833,947.954,912.417L938.262,929" id="my-svg-edge9" class="edge-thickness-normal edge-pattern-solid transition" style="fill:none;;;fill:none" data-edge="true" data-et="edge" data-id="edge9" data-points="W3sieCI6NDE3LjE3MTg3NSwieSI6NzE5LjAyMTQyNjM4OTkzMTd9LHsieCI6OTk2LjQxNDA2MjUsInkiOjc4Mn0seyJ4Ijo5OTYuNDE0MDYyNSwieSI6ODI5LjV9LHsieCI6OTM4LjI2MjIwMzk0NzM2ODQsInkiOjkyOX1d" data-look="classic" marker-end="url(#my-svg_stateDiagram-barbEnd)"/><path d="M596.729,268.5L591.967,276.417C587.205,284.333,577.681,300.167,572.918,316C568.156,331.833,568.156,347.667,568.156,375.375C568.156,403.083,568.156,442.667,568.156,482.25C568.156,521.833,568.156,561.417,568.156,589.125C568.156,616.833,568.156,632.667,568.156,651.708C568.156,670.75,568.156,693,568.156,715.25C568.156,737.5,568.156,759.75,568.156,778.792C568.156,797.833,568.156,813.667,568.156,838.167C568.156,862.667,568.156,895.833,568.156,912.417L568.156,929" id="my-svg-edge10" class="edge-thickness-normal edge-pattern-solid transition" style="fill:none;;;fill:none" data-edge="true" data-et="edge" data-id="edge10" data-points="W3sieCI6NTk2LjcyOTA3ODg4NTc2NzgsInkiOjI2OC41fSx7IngiOjU2OC4xNTYyNSwieSI6MzE2fSx7IngiOjU2OC4xNTYyNSwieSI6MzYzLjV9LHsieCI6NTY4LjE1NjI1LCJ5Ijo0ODIuMjV9LHsieCI6NTY4LjE1NjI1LCJ5Ijo2MDF9LHsieCI6NTY4LjE1NjI1LCJ5Ijo2NDguNX0seyJ4Ijo1NjguMTU2MjUsInkiOjcxNS4yNX0seyJ4Ijo1NjguMTU2MjUsInkiOjc4Mn0seyJ4Ijo1NjguMTU2MjUsInkiOjgyOS41fSx7IngiOjU2OC4xNTYyNSwieSI6OTI5fV0=" data-look="classic" marker-end="url(#my-svg_stateDiagram-barbEnd)"/><path d="M871.695,146.069L905.264,154.016C938.833,161.963,1005.971,177.856,1039.54,195.053C1073.109,212.25,1073.109,230.75,1073.109,251.125C1073.109,271.5,1073.109,293.75,1073.109,312.792C1073.109,331.833,1073.109,347.667,1073.109,375.375C1073.109,403.083,1073.109,442.667,1073.109,482.25C1073.109,521.833,1073.109,561.417,1073.109,589.125C1073.109,616.833,1073.109,632.667,1073.109,651.708C1073.109,670.75,1073.109,693,1073.109,715.25C1073.109,737.5,1073.109,759.75,1073.109,778.792C1073.109,797.833,1073.109,813.667,1052.707,838.167C1032.305,862.667,991.5,895.833,971.097,912.417L950.695,929" id="my-svg-edge11" class="edge-thickness-normal edge-pattern-solid transition" style="fill:none;;;fill:none" data-edge="true" data-et="edge" data-id="edge11" data-points="W3sieCI6ODcxLjY5NTMxMjUsInkiOjE0Ni4wNjk0NTQxNjM3NTA4Nn0seyJ4IjoxMDczLjEwOTM3NSwieSI6MTkzLjc1fSx7IngiOjEwNzMuMTA5Mzc1LCJ5IjoyNDkuMjV9LHsieCI6MTA3My4xMDkzNzUsInkiOjMxNn0seyJ4IjoxMDczLjEwOTM3NSwieSI6MzYzLjV9LHsieCI6MTA3My4xMDkzNzUsInkiOjQ4Mi4yNX0seyJ4IjoxMDczLjEwOTM3NSwieSI6NjAxfSx7IngiOjEwNzMuMTA5Mzc1LCJ5Ijo2NDguNX0seyJ4IjoxMDczLjEwOTM3NSwieSI6NzE1LjI1fSx7IngiOjEwNzMuMTA5Mzc1LCJ5Ijo3ODJ9LHsieCI6MTA3My4xMDkzNzUsInkiOjgyOS41fSx7IngiOjk1MC42OTQ5MTc3NjMxNTgsInkiOjkyOX1d" data-look="classic" marker-end="url(#my-svg_stateDiagram-barbEnd)"/><path d="M385.609,967.5L385.609,984.083C385.609,1000.667,385.609,1033.833,385.609,1054.583C385.609,1075.333,385.609,1083.667,444.743,1093.064C503.877,1102.461,622.144,1112.922,681.278,1118.152L740.411,1123.383" id="my-svg-edge12" class="edge-thickness-normal edge-pattern-solid transition" style="fill:none;;;fill:none" data-edge="true" data-et="edge" data-id="edge12" data-points="W3sieCI6Mzg1LjYwOTM3NSwieSI6OTY3LjV9LHsieCI6Mzg1LjYwOTM3NSwieSI6MTA2N30seyJ4IjozODUuNjA5Mzc1LCJ5IjoxMDkyfSx7IngiOjc0MC40MTEyMjcyNTg1MDIxLCJ5IjoxMTIzLjM4MjY2MzYxODYxNX1d" data-look="classic" marker-end="url(#my-svg_stateDiagram-barbEnd)"/><path d="M568.156,967.5L568.156,984.083C568.156,1000.667,568.156,1033.833,568.156,1054.583C568.156,1075.333,568.156,1083.667,596.879,1092.961C625.602,1102.256,683.047,1112.512,711.77,1117.64L740.493,1122.769" id="my-svg-edge13" class="edge-thickness-normal edge-pattern-solid transition" style="fill:none;;;fill:none" data-edge="true" data-et="edge" data-id="edge13" data-points="W3sieCI6NTY4LjE1NjI1LCJ5Ijo5NjcuNX0seyJ4Ijo1NjguMTU2MjUsInkiOjEwNjd9LHsieCI6NTY4LjE1NjI1LCJ5IjoxMDkyfSx7IngiOjc0MC40OTMwNDc5NjY0MTk4LCJ5IjoxMTIyLjc2ODUyNjA0MjY0OX1d" data-look="classic" marker-end="url(#my-svg_stateDiagram-barbEnd)"/><path d="M927.012,967.5L927.012,984.083C927.012,1000.667,927.012,1033.833,927.012,1054.583C927.012,1075.333,927.012,1083.667,898.225,1092.962C869.437,1102.257,811.863,1112.514,783.076,1117.643L754.289,1122.771" id="my-svg-edge14" class="edge-thickness-normal edge-pattern-solid transition" style="fill:none;;;fill:none" data-edge="true" data-et="edge" data-id="edge14" data-points="W3sieCI6OTI3LjAxMTcxODc1LCJ5Ijo5NjcuNX0seyJ4Ijo5MjcuMDExNzE4NzUsInkiOjEwNjd9LHsieCI6OTI3LjAxMTcxODc1LCJ5IjoxMDkyfSx7IngiOjc1NC4yODg2NjAzMjMxODI1LCJ5IjoxMTIyLjc3MTA5NTcyMzAzODh9XQ==" data-look="classic" marker-end="url(#my-svg_stateDiagram-barbEnd)"/><path d="M575.285,254.179L506.258,264.483C437.232,274.786,299.178,295.393,230.152,313.613C161.125,331.833,161.125,347.667,161.125,359.75C161.125,371.833,161.125,380.167,161.125,384.333L161.125,388.5" id="my-svg-running-running----note-15" class="edge-thickness-normal edge-pattern-solid transition note-edge" style="fill:none;;;fill:none" data-edge="true" data-et="edge" data-id="running-running----note-15" data-points="W3sieCI6NTc1LjI4NTE1NjI1LCJ5IjoyNTQuMTc5MzI3NjQ5NjEyNn0seyJ4IjoxNjEuMTI1LCJ5IjozMTZ9LHsieCI6MTYxLjEyNSwieSI6MzYzLjV9LHsieCI6MTYxLjEyNSwieSI6Mzg4LjV9XQ==" data-look="classic"/><path d="M347.797,725.564L316.164,734.97C284.531,744.376,221.266,763.188,189.633,780.511C158,797.833,158,813.667,158,825.75C158,837.833,158,846.167,158,850.333L158,854.5" id="my-svg-draining-draining----note-16" class="edge-thickness-normal edge-pattern-solid transition note-edge" style="fill:none;;;fill:none" data-edge="true" data-et="edge" data-id="draining-draining----note-16" data-points="W3sieCI6MzQ3Ljc5Njg3NSwieSI6NzI1LjU2NDI2MTg1MDA3MzF9LHsieCI6MTU4LCJ5Ijo3ODJ9LHsieCI6MTU4LCJ5Ijo4MjkuNX0seyJ4IjoxNTgsInkiOjg1NC41fV0=" data-look="classic"/></g><g class="edgeLabels"><g class="edgeLabel" transform="translate(838.6640625, 82.75)"><g class="label" data-id="edge0" transform="translate(-90.46875, -11.25)"><foreignObject width="180.9375" height="22.5"><div xmlns="http://www.w3.org/1999/xhtml" class="labelBkg" style="display: table-cell; white-space: nowrap; line-height: 1.5; max-width: 200px; text-align: center;"><span class="edgeLabel"><p>atomic admission accepted</p></span></div></foreignObject></g></g><g class="edgeLabel" transform="translate(608.30859375, 193.75)"><g class="label" data-id="edge1" transform="translate(-82.953125, -11.25)"><foreignObject width="165.90625" height="22.5"><div xmlns="http://www.w3.org/1999/xhtml" class="labelBkg" style="display: table-cell; white-space: nowrap; line-height: 1.5; max-width: 200px; text-align: center;"><span class="edgeLabel"><p>SearchRunService starts</p></span></div></foreignObject></g></g><g class="edgeLabel" transform="translate(820.92578125, 316)"><g class="label" data-id="edge2" transform="translate(-55.453125, -11.25)"><foreignObject width="110.90625" height="22.5"><div xmlns="http://www.w3.org/1999/xhtml" class="labelBkg" style="display: table-cell; white-space: nowrap; line-height: 1.5; max-width: 200px; text-align: center;"><span class="edgeLabel"><p>pause command</p></span></div></foreignObject></g></g><g class="edgeLabel" transform="translate(956.40234375, 316)"><g class="label" data-id="edge3" transform="translate(-60.0234375, -11.25)"><foreignObject width="120.046875" height="22.5"><div xmlns="http://www.w3.org/1999/xhtml" class="labelBkg" style="display: table-cell; white-space: nowrap; line-height: 1.5; max-width: 200px; text-align: center;"><span class="edgeLabel"><p>resume command</p></span></div></foreignObject></g></g><g class="edgeLabel" transform="translate(382.484375, 316)"><g class="label" data-id="edge4" transform="translate(-100, -22.5)"><foreignObject width="200" height="45"><div xmlns="http://www.w3.org/1999/xhtml" class="labelBkg" style="display: table; white-space: break-spaces; line-height: 1.5; max-width: 200px; text-align: center; width: 200px;"><span class="edgeLabel"><p>trial/budget/time/stagnation stop</p></span></div></foreignObject></g></g><g class="edgeLabel" transform="translate(382.484375, 648.5)"><g class="label" data-id="edge5" transform="translate(-62.546875, -11.25)"><foreignObject width="125.09375" height="22.5"><div xmlns="http://www.w3.org/1999/xhtml" class="labelBkg" style="display: table-cell; white-space: nowrap; line-height: 1.5; max-width: 200px; text-align: center;"><span class="edgeLabel"><p>no new candidates</p></span></div></foreignObject></g></g><g class="edgeLabel" transform="translate(385.609375, 782)"><g class="label" data-id="edge6" transform="translate(-100, -22.5)"><foreignObject width="200" height="45"><div xmlns="http://www.w3.org/1999/xhtml" class="labelBkg" style="display: table; white-space: break-spaces; line-height: 1.5; max-width: 200px; text-align: center; width: 200px;"><span class="edgeLabel"><p>all accepted candidates terminal</p></span></div></foreignObject></g></g><g class="edgeLabel" transform="translate(744.8515625, 648.5)"><g class="label" data-id="edge7" transform="translate(-56.6953125, -11.25)"><foreignObject width="113.390625" height="22.5"><div xmlns="http://www.w3.org/1999/xhtml" class="labelBkg" style="display: table-cell; white-space: nowrap; line-height: 1.5; max-width: 200px; text-align: center;"><span class="edgeLabel"><p>cancel command</p></span></div></foreignObject></g></g><g class="edgeLabel" transform="translate(888.6640625, 715.25)"><g class="label" data-id="edge8" transform="translate(-56.6953125, -11.25)"><foreignObject width="113.390625" height="22.5"><div xmlns="http://www.w3.org/1999/xhtml" class="labelBkg" style="display: table-cell; white-space: nowrap; line-height: 1.5; max-width: 200px; text-align: center;"><span class="edgeLabel"><p>cancel command</p></span></div></foreignObject></g></g><g class="edgeLabel" transform="translate(996.4140625, 782)"><g class="label" data-id="edge9" transform="translate(-56.6953125, -11.25)"><foreignObject width="113.390625" height="22.5"><div xmlns="http://www.w3.org/1999/xhtml" class="labelBkg" style="display: table-cell; white-space: nowrap; line-height: 1.5; max-width: 200px; text-align: center;"><span class="edgeLabel"><p>cancel command</p></span></div></foreignObject></g></g><g class="edgeLabel" transform="translate(568.15625, 648.5)"><g class="label" data-id="edge10" transform="translate(-100, -22.5)"><foreignObject width="200" height="45"><div xmlns="http://www.w3.org/1999/xhtml" class="labelBkg" style="display: table; white-space: break-spaces; line-height: 1.5; max-width: 200px; text-align: center; width: 200px;"><span class="edgeLabel"><p>unrecoverable orchestration error</p></span></div></foreignObject></g></g><g class="edgeLabel" transform="translate(1073.109375, 482.25)"><g class="label" data-id="edge11" transform="translate(-61.703125, -11.25)"><foreignObject width="123.40625" height="22.5"><div xmlns="http://www.w3.org/1999/xhtml" class="labelBkg" style="display: table-cell; white-space: nowrap; line-height: 1.5; max-width: 200px; text-align: center;"><span class="edgeLabel"><p>cancel before start</p></span></div></foreignObject></g></g><g class="edgeLabel"><g class="label" data-id="edge12" transform="translate(0, 0)"><foreignObject width="0" height="0"><div xmlns="http://www.w3.org/1999/xhtml" class="labelBkg" style="display: table-cell; white-space: nowrap; line-height: 1.5; max-width: 200px; text-align: center;"><span class="edgeLabel"></span></div></foreignObject></g></g><g class="edgeLabel"><g class="label" data-id="edge13" transform="translate(0, 0)"><foreignObject width="0" height="0"><div xmlns="http://www.w3.org/1999/xhtml" class="labelBkg" style="display: table-cell; white-space: nowrap; line-height: 1.5; max-width: 200px; text-align: center;"><span class="edgeLabel"></span></div></foreignObject></g></g><g class="edgeLabel"><g class="label" data-id="edge14" transform="translate(0, 0)"><foreignObject width="0" height="0"><div xmlns="http://www.w3.org/1999/xhtml" class="labelBkg" style="display: table-cell; white-space: nowrap; line-height: 1.5; max-width: 200px; text-align: center;"><span class="edgeLabel"></span></div></foreignObject></g></g><g class="edgeLabel"><g class="label" data-id="running-running----note-15" transform="translate(0, 0)"><foreignObject width="0" height="0"><div xmlns="http://www.w3.org/1999/xhtml" class="labelBkg" style="display: table-cell; white-space: nowrap; line-height: 1.5; max-width: 200px; text-align: center;"><span class="edgeLabel"></span></div></foreignObject></g></g><g class="edgeLabel"><g class="label" data-id="draining-draining----note-16" transform="translate(0, 0)"><foreignObject width="0" height="0"><div xmlns="http://www.w3.org/1999/xhtml" class="labelBkg" style="display: table-cell; white-space: nowrap; line-height: 1.5; max-width: 200px; text-align: center;"><span class="edgeLabel"></span></div></foreignObject></g></g></g><g class="nodes"><g class="node default" id="my-svg-state-root_start-0" data-look="classic" transform="translate(838.6640625, 27.25)"><circle class="state-start" r="7" width="14" height="14"/></g><g class="node  statediagram-state" id="my-svg-state-queued-11" data-look="classic" transform="translate(838.6640625, 138.25)"><rect class="basic label-container" style="" rx="5" ry="5" x="-33.03125" y="-19.25" width="66.0625" height="38.5"/><g class="label" style="" transform="translate(-25.03125, -11.25)"><rect/><foreignObject width="50.0625" height="22.5"><div xmlns="http://www.w3.org/1999/xhtml" style="display: table-cell; white-space: nowrap; line-height: 1.5; max-width: 200px; text-align: center;"><span class="nodeLabel markdown-node-label"><p>queued</p></span></div></foreignObject></g></g><g class="node  statediagram-state" id="my-svg-state-running-15" data-look="classic" transform="translate(608.30859375, 249.25)"><rect class="basic label-container" style="" rx="5" ry="5" x="-33.0234375" y="-19.25" width="66.046875" height="38.5"/><g class="label" style="" transform="translate(-25.0234375, -11.25)"><rect/><foreignObject width="50.046875" height="22.5"><div xmlns="http://www.w3.org/1999/xhtml" style="display: table-cell; white-space: nowrap; line-height: 1.5; max-width: 200px; text-align: center;"><span class="nodeLabel markdown-node-label"><p>running</p></span></div></foreignObject></g></g><g class="node  statediagram-state" id="my-svg-state-paused-8" data-look="classic" transform="translate(888.6640625, 482.25)"><rect class="basic label-container" style="" rx="5" ry="5" x="-32.609375" y="-19.25" width="65.21875" height="38.5"/><g class="label" style="" transform="translate(-24.609375, -11.25)"><rect/><foreignObject width="49.21875" height="22.5"><div xmlns="http://www.w3.org/1999/xhtml" style="display: table-cell; white-space: nowrap; line-height: 1.5; max-width: 200px; text-align: center;"><span class="nodeLabel markdown-node-label"><p>paused</p></span></div></foreignObject></g></g><g class="node  statediagram-state" id="my-svg-state-stopping-5" data-look="classic" transform="translate(382.484375, 482.25)"><rect class="basic label-container" style="" rx="5" ry="5" x="-36.359375" y="-19.25" width="72.71875" height="38.5"/><g class="label" style="" transform="translate(-28.359375, -11.25)"><rect/><foreignObject width="56.71875" height="22.5"><div xmlns="http://www.w3.org/1999/xhtml" style="display: table-cell; white-space: nowrap; line-height: 1.5; max-width: 200px; text-align: center;"><span class="nodeLabel markdown-node-label"><p>stopping</p></span></div></foreignObject></g></g><g class="node  statediagram-state" id="my-svg-state-draining-16" data-look="classic" transform="translate(382.484375, 715.25)"><rect class="basic label-container" style="" rx="5" ry="5" x="-34.6875" y="-19.25" width="69.375" height="38.5"/><g class="label" style="" transform="translate(-26.6875, -11.25)"><rect/><foreignObject width="53.375" height="22.5"><div xmlns="http://www.w3.org/1999/xhtml" style="display: table-cell; white-space: nowrap; line-height: 1.5; max-width: 200px; text-align: center;"><span class="nodeLabel markdown-node-label"><p>draining</p></span></div></foreignObject></g></g><g class="node  statediagram-state" id="my-svg-state-;-6" data-look="classic" transform="translate(905.75, 27.25)"><rect class="basic label-container" style="" rx="5" ry="5" x="-10.0859375" y="-19.25" width="20.171875" height="38.5"/><g class="label" style="" transform="translate(-2.0859375, -11.25)"><rect/><foreignObject width="4.171875" height="22.5"><div xmlns="http://www.w3.org/1999/xhtml" style="display: table-cell; white-space: nowrap; line-height: 1.5; max-width: 200px; text-align: center;"><span class="nodeLabel markdown-node-label"><p>;</p></span></div></foreignObject></g></g><g class="node  statediagram-state" id="my-svg-state-wait-6" data-look="classic" transform="translate(987.1796875, 27.25)"><rect class="basic label-container" style="" rx="5" ry="5" x="-21.34375" y="-19.25" width="42.6875" height="38.5"/><g class="label" style="" transform="translate(-13.34375, -11.25)"><rect/><foreignObject width="26.6875" height="22.5"><div xmlns="http://www.w3.org/1999/xhtml" style="display: table-cell; white-space: nowrap; line-height: 1.5; max-width: 200px; text-align: center;"><span class="nodeLabel markdown-node-label"><p>wait</p></span></div></foreignObject></g></g><g class="node  statediagram-state" id="my-svg-state-queued/running-6" data-look="classic" transform="translate(1118.65625, 27.25)"><rect class="basic label-container" style="" rx="5" ry="5" x="-60.1328125" y="-19.25" width="120.265625" height="38.5"/><g class="label" style="" transform="translate(-52.1328125, -11.25)"><rect/><foreignObject width="104.265625" height="22.5"><div xmlns="http://www.w3.org/1999/xhtml" style="display: table-cell; white-space: nowrap; line-height: 1.5; max-width: 200px; text-align: center;"><span class="nodeLabel markdown-node-label"><p>queued/running</p></span></div></foreignObject></g></g><g class="node  statediagram-state" id="my-svg-state-jobs-6" data-look="classic" transform="translate(1250.5546875, 27.25)"><rect class="basic label-container" style="" rx="5" ry="5" x="-21.765625" y="-19.25" width="43.53125" height="38.5"/><g class="label" style="" transform="translate(-13.765625, -11.25)"><rect/><foreignObject width="27.53125" height="22.5"><div xmlns="http://www.w3.org/1999/xhtml" style="display: table-cell; white-space: nowrap; line-height: 1.5; max-width: 200px; text-align: center;"><span class="nodeLabel markdown-node-label"><p>jobs</p></span></div></foreignObject></g></g><g class="node  statediagram-state" id="my-svg-state-completed-12" data-look="classic" transform="translate(385.609375, 948.25)"><rect class="basic label-container" style="" rx="5" ry="5" x="-42.609375" y="-19.25" width="85.21875" height="38.5"/><g class="label" style="" transform="translate(-34.609375, -11.25)"><rect/><foreignObject width="69.21875" height="22.5"><div xmlns="http://www.w3.org/1999/xhtml" style="display: table-cell; white-space: nowrap; line-height: 1.5; max-width: 200px; text-align: center;"><span class="nodeLabel markdown-node-label"><p>completed</p></span></div></foreignObject></g></g><g class="node  statediagram-state" id="my-svg-state-cancelled-14" data-look="classic" transform="translate(927.01171875, 948.25)"><rect class="basic label-container" style="" rx="5" ry="5" x="-39.6953125" y="-19.25" width="79.390625" height="38.5"/><g class="label" style="" transform="translate(-31.6953125, -11.25)"><rect/><foreignObject width="63.390625" height="22.5"><div xmlns="http://www.w3.org/1999/xhtml" style="display: table-cell; white-space: nowrap; line-height: 1.5; max-width: 200px; text-align: center;"><span class="nodeLabel markdown-node-label"><p>cancelled</p></span></div></foreignObject></g></g><g class="node  statediagram-state" id="my-svg-state-failed-13" data-look="classic" transform="translate(568.15625, 948.25)"><rect class="basic label-container" style="" rx="5" ry="5" x="-25.9296875" y="-19.25" width="51.859375" height="38.5"/><g class="label" style="" transform="translate(-17.9296875, -11.25)"><rect/><foreignObject width="35.859375" height="22.5"><div xmlns="http://www.w3.org/1999/xhtml" style="display: table-cell; white-space: nowrap; line-height: 1.5; max-width: 200px; text-align: center;"><span class="nodeLabel markdown-node-label"><p>failed</p></span></div></foreignObject></g></g><g class="node default" id="my-svg-state-root_end-14" data-look="classic" transform="translate(747.390625, 1124)"><g class="outer-path"><path d="M7 0 C7 0.40517908122283747, 6.964012880168563 0.816513743121899, 6.893654271085456 1.2155372436685123 C6.823295662002349 1.6145607442151257, 6.716427752933756 2.013397210557766, 6.5778483455013586 2.394141003279681 C6.439268938068961 2.7748847960015954, 6.26476736710249 3.149104622578984, 6.062177826491071 3.4999999999999996 C5.859588285879653 3.8508953774210153, 5.622755194947063 4.189128084166967, 5.362311101832846 4.499513267805774 C5.10186700871863 4.809898451444582, 4.809898451444583 5.10186700871863, 4.499513267805775 5.362311101832846 C4.189128084166968 5.622755194947063, 3.8508953774210166 5.859588285879652, 3.500000000000001 6.06217782649107 C3.149104622578985 6.264767367102489, 2.7748847960015963 6.439268938068961, 2.3941410032796817 6.5778483455013586 C2.013397210557767 6.716427752933756, 1.6145607442151264 6.823295662002349, 1.2155372436685128 6.893654271085456 C0.8165137431218992 6.964012880168563, 0.4051790812228379 7, 4.286263797015736e-16 7 C-0.405179081222837 7, -0.8165137431218985 6.964012880168563, -1.2155372436685121 6.893654271085456 C-1.6145607442151257 6.823295662002349, -2.0133972105577667 6.716427752933756, -2.394141003279681 6.5778483455013586 C-2.774884796001595 6.439268938068961, -3.149104622578983 6.26476736710249, -3.4999999999999982 6.062177826491071 C-3.8508953774210135 5.859588285879653, -4.189128084166966 5.6227551949470636, -4.499513267805773 5.362311101832848 C-4.809898451444581 5.101867008718632, -5.101867008718628 4.809898451444586, -5.3623111018328435 4.499513267805779 C-5.622755194947059 4.189128084166971, -5.859588285879649 3.8508953774210206, -6.062177826491068 3.5000000000000053 C-6.264767367102486 3.14910462257899, -6.439268938068958 2.774884796001602, -6.577848345501356 2.394141003279688 C-6.716427752933754 2.0133972105577738, -6.823295662002347 1.614560744215134, -6.893654271085454 1.215537243668521 C-6.9640128801685615 0.816513743121908, -6.999999999999999 0.4051790812228472, -7 1.0183126166254463e-14 C-7.000000000000001 -0.40517908122282686, -6.964012880168565 -0.8165137431218878, -6.893654271085459 -1.215537243668501 C-6.823295662002352 -1.6145607442151142, -6.716427752933759 -2.0133972105577542, -6.577848345501363 -2.394141003279669 C-6.439268938068967 -2.7748847960015834, -6.264767367102496 -3.149104622578972, -6.062177826491078 -3.4999999999999876 C-5.859588285879661 -3.8508953774210033, -5.6227551949470715 -4.1891280841669545, -5.362311101832856 -4.499513267805763 C-5.10186700871864 -4.809898451444571, -4.809898451444594 -5.10186700871862, -4.499513267805787 -5.362311101832836 C-4.189128084166979 -5.622755194947053, -3.850895377421028 -5.859588285879643, -3.5000000000000133 -6.062177826491062 C-3.1491046225789985 -6.264767367102482, -2.774884796001611 -6.439268938068954, -2.3941410032796973 -6.577848345501353 C-2.0133972105577835 -6.716427752933752, -1.6145607442151435 -6.823295662002345, -1.2155372436685306 -6.893654271085453 C-0.8165137431219176 -6.9640128801685615, -0.40517908122285695 -6.999999999999999, -1.9937625952807352e-14 -7 C0.4051790812228171 -7.000000000000001, 0.8165137431218781 -6.964012880168565, 1.2155372436684913 -6.89365427108546 C1.6145607442151044 -6.823295662002354, 2.013397210557745 -6.716427752933763, 2.3941410032796595 -6.5778483455013665 C2.774884796001574 -6.43926893806897, 3.149104622578963 -6.2647673671025, 3.499999999999979 -6.062177826491083 C3.8508953774209953 -5.859588285879665, 4.189128084166947 -5.622755194947077, 4.499513267805756 -5.362311101832862 C4.809898451444564 -5.1018670087186475, 5.101867008718613 -4.809898451444602, 5.362311101832829 -4.499513267805796 C5.622755194947046 -4.189128084166989, 5.859588285879637 -3.8508953774210393, 6.062177826491056 -3.500000000000025 C6.2647673671024755 -3.1491046225790105, 6.439268938068949 -2.774884796001623, 6.577848345501348 -2.3941410032797092 C6.716427752933747 -2.0133972105577955, 6.823295662002342 -1.6145607442151562, 6.893654271085451 -1.2155372436685434 C6.96401288016856 -0.8165137431219307, 6.982275711847575 -0.2025895406114567, 7 -3.2800750208310675e-14 C7.017724288152425 0.2025895406113911, 7.017724288152424 -0.2025895406114242, 7 0" stroke="none" stroke-width="0" fill="#ECECFF" style=""/><path d="M7 0 C7 0.40517908122283747, 6.964012880168563 0.816513743121899, 6.893654271085456 1.2155372436685123 C6.823295662002349 1.6145607442151257, 6.716427752933756 2.013397210557766, 6.5778483455013586 2.394141003279681 C6.439268938068961 2.7748847960015954, 6.26476736710249 3.149104622578984, 6.062177826491071 3.4999999999999996 C5.859588285879653 3.8508953774210153, 5.622755194947063 4.189128084166967, 5.362311101832846 4.499513267805774 C5.10186700871863 4.809898451444582, 4.809898451444583 5.10186700871863, 4.499513267805775 5.362311101832846 C4.189128084166968 5.622755194947063, 3.8508953774210166 5.859588285879652, 3.500000000000001 6.06217782649107 C3.149104622578985 6.264767367102489, 2.7748847960015963 6.439268938068961, 2.3941410032796817 6.5778483455013586 C2.013397210557767 6.716427752933756, 1.6145607442151264 6.823295662002349, 1.2155372436685128 6.893654271085456 C0.8165137431218992 6.964012880168563, 0.4051790812228379 7, 4.286263797015736e-16 7 C-0.405179081222837 7, -0.8165137431218985 6.964012880168563, -1.2155372436685121 6.893654271085456 C-1.6145607442151257 6.823295662002349, -2.0133972105577667 6.716427752933756, -2.394141003279681 6.5778483455013586 C-2.774884796001595 6.439268938068961, -3.149104622578983 6.26476736710249, -3.4999999999999982 6.062177826491071 C-3.8508953774210135 5.859588285879653, -4.189128084166966 5.6227551949470636, -4.499513267805773 5.362311101832848 C-4.809898451444581 5.101867008718632, -5.101867008718628 4.809898451444586, -5.3623111018328435 4.499513267805779 C-5.622755194947059 4.189128084166971, -5.859588285879649 3.8508953774210206, -6.062177826491068 3.5000000000000053 C-6.264767367102486 3.14910462257899, -6.439268938068958 2.774884796001602, -6.577848345501356 2.394141003279688 C-6.716427752933754 2.0133972105577738, -6.823295662002347 1.614560744215134, -6.893654271085454 1.215537243668521 C-6.9640128801685615 0.816513743121908, -6.999999999999999 0.4051790812228472, -7 1.0183126166254463e-14 C-7.000000000000001 -0.40517908122282686, -6.964012880168565 -0.8165137431218878, -6.893654271085459 -1.215537243668501 C-6.823295662002352 -1.6145607442151142, -6.716427752933759 -2.0133972105577542, -6.577848345501363 -2.394141003279669 C-6.439268938068967 -2.7748847960015834, -6.264767367102496 -3.149104622578972, -6.062177826491078 -3.4999999999999876 C-5.859588285879661 -3.8508953774210033, -5.6227551949470715 -4.1891280841669545, -5.362311101832856 -4.499513267805763 C-5.10186700871864 -4.809898451444571, -4.809898451444594 -5.10186700871862, -4.499513267805787 -5.362311101832836 C-4.189128084166979 -5.622755194947053, -3.850895377421028 -5.859588285879643, -3.5000000000000133 -6.062177826491062 C-3.1491046225789985 -6.264767367102482, -2.774884796001611 -6.439268938068954, -2.3941410032796973 -6.577848345501353 C-2.0133972105577835 -6.716427752933752, -1.6145607442151435 -6.823295662002345, -1.2155372436685306 -6.893654271085453 C-0.8165137431219176 -6.9640128801685615, -0.40517908122285695 -6.999999999999999, -1.9937625952807352e-14 -7 C0.4051790812228171 -7.000000000000001, 0.8165137431218781 -6.964012880168565, 1.2155372436684913 -6.89365427108546 C1.6145607442151044 -6.823295662002354, 2.013397210557745 -6.716427752933763, 2.3941410032796595 -6.5778483455013665 C2.774884796001574 -6.43926893806897, 3.149104622578963 -6.2647673671025, 3.499999999999979 -6.062177826491083 C3.8508953774209953 -5.859588285879665, 4.189128084166947 -5.622755194947077, 4.499513267805756 -5.362311101832862 C4.809898451444564 -5.1018670087186475, 5.101867008718613 -4.809898451444602, 5.362311101832829 -4.499513267805796 C5.622755194947046 -4.189128084166989, 5.859588285879637 -3.8508953774210393, 6.062177826491056 -3.500000000000025 C6.2647673671024755 -3.1491046225790105, 6.439268938068949 -2.774884796001623, 6.577848345501348 -2.3941410032797092 C6.716427752933747 -2.0133972105577955, 6.823295662002342 -1.6145607442151562, 6.893654271085451 -1.2155372436685434 C6.96401288016856 -0.8165137431219307, 6.982275711847575 -0.2025895406114567, 7 -3.2800750208310675e-14 C7.017724288152425 0.2025895406113911, 7.017724288152424 -0.2025895406114242, 7 0" stroke="#333333" stroke-width="2" fill="none" stroke-dasharray="0 0" style=""/><g><path d="M2.5 0 C2.5 0.14470681472244193, 2.487147457203058 0.29161205111496386, 2.46201938253052 0.4341204441673258 C2.436891307857982 0.5766288372196877, 2.3987241974763416 0.7190704323420595, 2.3492315519647713 0.8550503583141718 C2.299738906453201 0.991030284286284, 2.2374169168223177 1.124680222349637, 2.165063509461097 1.2499999999999998 C2.092710102099876 1.3753197776503625, 2.0081268553382365 1.496117172916774, 1.915111107797445 1.6069690242163481 C1.8220953602566536 1.7178208755159223, 1.7178208755159226 1.8220953602566536, 1.6069690242163484 1.915111107797445 C1.4961171729167742 2.0081268553382365, 1.375319777650363 2.0927101020998755, 1.2500000000000002 2.1650635094610964 C1.1246802223496375 2.2374169168223172, 0.9910302842862845 2.2997389064532, 0.8550503583141721 2.349231551964771 C0.7190704323420597 2.3987241974763416, 0.576628837219688 2.436891307857982, 0.43412044416732604 2.46201938253052 C0.291612051114964 2.487147457203058, 0.14470681472244212 2.5, 1.5308084989341916e-16 2.5 C-0.1447068147224418 2.5, -0.2916120511149638 2.487147457203058, -0.43412044416732576 2.46201938253052 C-0.5766288372196877 2.436891307857982, -0.7190704323420595 2.3987241974763416, -0.8550503583141718 2.3492315519647713 C-0.991030284286284 2.299738906453201, -1.124680222349637 2.2374169168223177, -1.2499999999999996 2.165063509461097 C-1.375319777650362 2.092710102099876, -1.4961171729167733 2.008126855338237, -1.6069690242163475 1.9151111077974459 C-1.7178208755159217 1.8220953602566548, -1.822095360256653 1.7178208755159234, -1.9151111077974443 1.6069690242163495 C-2.0081268553382357 1.4961171729167755, -2.0927101020998746 1.3753197776503645, -2.1650635094610955 1.250000000000002 C-2.2374169168223164 1.1246802223496395, -2.2997389064531992 0.9910302842862865, -2.34923155196477 0.8550503583141743 C-2.3987241974763407 0.7190704323420621, -2.436891307857981 0.5766288372196907, -2.4620193825305194 0.434120444167329 C-2.487147457203058 0.29161205111496724, -2.5 0.14470681472244545, -2.5 3.636830773662308e-15 C-2.5 -0.14470681472243818, -2.4871474572030587 -0.2916120511149599, -2.4620193825305208 -0.4341204441673218 C-2.436891307857983 -0.5766288372196837, -2.398724197476343 -0.7190704323420553, -2.3492315519647726 -0.8550503583141675 C-2.2997389064532023 -0.9910302842862798, -2.23741691682232 -1.1246802223496328, -2.165063509461099 -1.2499999999999956 C-2.092710102099878 -1.3753197776503583, -2.00812685533824 -1.4961171729167695, -1.9151111077974488 -1.606969024216344 C-1.8220953602566576 -1.7178208755159183, -1.7178208755159263 -1.82209536025665, -1.6069690242163523 -1.9151111077974416 C-1.4961171729167784 -2.0081268553382334, -1.3753197776503672 -2.0927101020998724, -1.2500000000000047 -2.1650635094610937 C-1.1246802223496422 -2.237416916822315, -0.9910302842862897 -2.299738906453198, -0.8550503583141776 -2.3492315519647686 C-0.7190704323420656 -2.3987241974763394, -0.5766288372196942 -2.4368913078579806, -0.43412044416733236 -2.462019382530519 C-0.29161205111497057 -2.4871474572030574, -0.1447068147224489 -2.4999999999999996, -7.120580697431198e-15 -2.5 C0.14470681472243463 -2.5000000000000004, 0.29161205111495647 -2.487147457203059, 0.4341204441673183 -2.4620193825305217 C0.5766288372196802 -2.436891307857984, 0.7190704323420518 -2.3987241974763442, 0.8550503583141642 -2.349231551964774 C0.9910302842862766 -2.2997389064532037, 1.1246802223496295 -2.2374169168223212, 1.2499999999999925 -2.165063509461101 C1.3753197776503554 -2.0927101020998804, 1.4961171729167668 -2.008126855338242, 1.6069690242163412 -1.915111107797451 C1.7178208755159157 -1.82209536025666, 1.8220953602566472 -1.7178208755159294, 1.915111107797439 -1.6069690242163557 C2.0081268553382308 -1.496117172916782, 2.09271010209987 -1.3753197776503712, 2.1650635094610915 -1.2500000000000089 C2.237416916822313 -1.1246802223496466, 2.299738906453196 -0.9910302842862939, 2.3492315519647673 -0.855050358314182 C2.3987241974763385 -0.71907043234207, 2.4368913078579792 -0.5766288372196986, 2.462019382530518 -0.4341204441673369 C2.487147457203057 -0.29161205111497523, 2.4936698970884197 -0.07235340736123454, 2.5 -1.1714553645825241e-14 C2.5063301029115803 0.07235340736121111, 2.50633010291158 -0.07235340736122292, 2.5 0" stroke="none" stroke-width="0" fill="#9370DB" style=""/><path d="M2.5 0 C2.5 0.14470681472244193, 2.487147457203058 0.29161205111496386, 2.46201938253052 0.4341204441673258 C2.436891307857982 0.5766288372196877, 2.3987241974763416 0.7190704323420595, 2.3492315519647713 0.8550503583141718 C2.299738906453201 0.991030284286284, 2.2374169168223177 1.124680222349637, 2.165063509461097 1.2499999999999998 C2.092710102099876 1.3753197776503625, 2.0081268553382365 1.496117172916774, 1.915111107797445 1.6069690242163481 C1.8220953602566536 1.7178208755159223, 1.7178208755159226 1.8220953602566536, 1.6069690242163484 1.915111107797445 C1.4961171729167742 2.0081268553382365, 1.375319777650363 2.0927101020998755, 1.2500000000000002 2.1650635094610964 C1.1246802223496375 2.2374169168223172, 0.9910302842862845 2.2997389064532, 0.8550503583141721 2.349231551964771 C0.7190704323420597 2.3987241974763416, 0.576628837219688 2.436891307857982, 0.43412044416732604 2.46201938253052 C0.291612051114964 2.487147457203058, 0.14470681472244212 2.5, 1.5308084989341916e-16 2.5 C-0.1447068147224418 2.5, -0.2916120511149638 2.487147457203058, -0.43412044416732576 2.46201938253052 C-0.5766288372196877 2.436891307857982, -0.7190704323420595 2.3987241974763416, -0.8550503583141718 2.3492315519647713 C-0.991030284286284 2.299738906453201, -1.124680222349637 2.2374169168223177, -1.2499999999999996 2.165063509461097 C-1.375319777650362 2.092710102099876, -1.4961171729167733 2.008126855338237, -1.6069690242163475 1.9151111077974459 C-1.7178208755159217 1.8220953602566548, -1.822095360256653 1.7178208755159234, -1.9151111077974443 1.6069690242163495 C-2.0081268553382357 1.4961171729167755, -2.0927101020998746 1.3753197776503645, -2.1650635094610955 1.250000000000002 C-2.2374169168223164 1.1246802223496395, -2.2997389064531992 0.9910302842862865, -2.34923155196477 0.8550503583141743 C-2.3987241974763407 0.7190704323420621, -2.436891307857981 0.5766288372196907, -2.4620193825305194 0.434120444167329 C-2.487147457203058 0.29161205111496724, -2.5 0.14470681472244545, -2.5 3.636830773662308e-15 C-2.5 -0.14470681472243818, -2.4871474572030587 -0.2916120511149599, -2.4620193825305208 -0.4341204441673218 C-2.436891307857983 -0.5766288372196837, -2.398724197476343 -0.7190704323420553, -2.3492315519647726 -0.8550503583141675 C-2.2997389064532023 -0.9910302842862798, -2.23741691682232 -1.1246802223496328, -2.165063509461099 -1.2499999999999956 C-2.092710102099878 -1.3753197776503583, -2.00812685533824 -1.4961171729167695, -1.9151111077974488 -1.606969024216344 C-1.8220953602566576 -1.7178208755159183, -1.7178208755159263 -1.82209536025665, -1.6069690242163523 -1.9151111077974416 C-1.4961171729167784 -2.0081268553382334, -1.3753197776503672 -2.0927101020998724, -1.2500000000000047 -2.1650635094610937 C-1.1246802223496422 -2.237416916822315, -0.9910302842862897 -2.299738906453198, -0.8550503583141776 -2.3492315519647686 C-0.7190704323420656 -2.3987241974763394, -0.5766288372196942 -2.4368913078579806, -0.43412044416733236 -2.462019382530519 C-0.29161205111497057 -2.4871474572030574, -0.1447068147224489 -2.4999999999999996, -7.120580697431198e-15 -2.5 C0.14470681472243463 -2.5000000000000004, 0.29161205111495647 -2.487147457203059, 0.4341204441673183 -2.4620193825305217 C0.5766288372196802 -2.436891307857984, 0.7190704323420518 -2.3987241974763442, 0.8550503583141642 -2.349231551964774 C0.9910302842862766 -2.2997389064532037, 1.1246802223496295 -2.2374169168223212, 1.2499999999999925 -2.165063509461101 C1.3753197776503554 -2.0927101020998804, 1.4961171729167668 -2.008126855338242, 1.6069690242163412 -1.915111107797451 C1.7178208755159157 -1.82209536025666, 1.8220953602566472 -1.7178208755159294, 1.915111107797439 -1.6069690242163557 C2.0081268553382308 -1.496117172916782, 2.09271010209987 -1.3753197776503712, 2.1650635094610915 -1.2500000000000089 C2.237416916822313 -1.1246802223496466, 2.299738906453196 -0.9910302842862939, 2.3492315519647673 -0.855050358314182 C2.3987241974763385 -0.71907043234207, 2.4368913078579792 -0.5766288372196986, 2.462019382530518 -0.4341204441673369 C2.487147457203057 -0.29161205111497523, 2.4936698970884197 -0.07235340736123454, 2.5 -1.1714553645825241e-14 C2.5063301029115803 0.07235340736121111, 2.50633010291158 -0.07235340736122292, 2.5 0" stroke="#9370DB" stroke-width="2" fill="none" stroke-dasharray="0 0" style=""/></g></g></g><g class="node statediagram-note" id="my-svg-state-running----note-15" data-look="classic" transform="translate(161.125, 482.25)"><g class="basic label-container outer-path"><path d="M-115 -93.75 L115 -93.75 L115 93.75 L-115 93.75" stroke="none" stroke-width="0" fill="#fff5ad" style=""/><path d="M-115 -93.75 C-32.27247792625418 -93.75, 50.455044147491634 -93.75, 115 -93.75 M-115 -93.75 C-38.100995121866504 -93.75, 38.79800975626699 -93.75, 115 -93.75 M115 -93.75 C115 -21.669402257083306, 115 50.41119548583339, 115 93.75 M115 -93.75 C115 -22.67845443420825, 115 48.3930911315835, 115 93.75 M115 93.75 C60.74272517320516 93.75, 6.4854503464103175 93.75, -115 93.75 M115 93.75 C30.623852274878885 93.75, -53.75229545024223 93.75, -115 93.75 M-115 93.75 C-115 19.888942096018653, -115 -53.972115807962695, -115 -93.75 M-115 93.75 C-115 39.47433702487298, -115 -14.80132595025404, -115 -93.75" stroke="#aaaa33" stroke-width="1.3" fill="none" stroke-dasharray="0 0" style=""/></g><g class="label noteLabel" style="" transform="translate(-100, -78.75)"><rect/><foreignObject width="200" height="157.5"><div xmlns="http://www.w3.org/1999/xhtml" style="display: table; white-space: break-spaces; line-height: 1.5; max-width: 200px; text-align: center; width: 200px;"><span class="nodeLabel markdown-node-label"><p>Stop conditions bắt buộc:<br />Discovery: 500 trials, 2 active hours,<br />quota/budget exhausted, or 100 terminal<br />trials without &gt;= .02 improvement.</p></span></div></foreignObject></g></g><g class="node statediagram-note" id="my-svg-state-draining----note-16" data-look="classic" transform="translate(158, 948.25)"><g class="basic label-container outer-path"><path d="M-115 -93.75 L115 -93.75 L115 93.75 L-115 93.75" stroke="none" stroke-width="0" fill="#fff5ad" style=""/><path d="M-115 -93.75 C-64.16164837314332 -93.75, -13.32329674628663 -93.75, 115 -93.75 M-115 -93.75 C-43.816083185704514 -93.75, 27.367833628590972 -93.75, 115 -93.75 M115 -93.75 C115 -55.25043522184364, 115 -16.750870443687276, 115 93.75 M115 -93.75 C115 -45.35260167622128, 115 3.0447966475574333, 115 93.75 M115 93.75 C51.020202578413496 93.75, -12.959594843173008 93.75, -115 93.75 M115 93.75 C59.06695067436222 93.75, 3.133901348724436 93.75, -115 93.75 M-115 93.75 C-115 32.513483385658255, -115 -28.72303322868349, -115 -93.75 M-115 93.75 C-115 38.55323624173928, -115 -16.643527516521445, -115 -93.75" stroke="#aaaa33" stroke-width="1.3" fill="none" stroke-dasharray="0 0" style=""/></g><g class="label noteLabel" style="" transform="translate(-100, -78.75)"><rect/><foreignObject width="200" height="157.5"><div xmlns="http://www.w3.org/1999/xhtml" style="display: table; white-space: break-spaces; line-height: 1.5; max-width: 200px; text-align: center; width: 200px;"><span class="nodeLabel markdown-node-label"><p>Pause: no next candidate admission.<br />Cancel: no future work or final test;<br />running work follows cooperative cancellation policy.</p></span></div></foreignObject></g></g></g></g></g><defs><filter id="my-svg-drop-shadow" height="130%" width="130%"><feDropShadow dx="4" dy="4" stdDeviation="0" flood-opacity="0.06" flood-color="#000000"/></filter></defs><defs><filter id="my-svg-drop-shadow-small" height="150%" width="150%"><feDropShadow dx="2" dy="2" stdDeviation="0" flood-opacity="0.06" flood-color="#000000"/></filter></defs></svg>